<svg xmlns="http://www.w3.org/2000/svg" viewBox="0 0 16 16" fill="none" shape-rendering="crispEdges" aria-hidden="true" width="512" height="512"><!-- Generated by DiceBear (https://www.dicebear.com) --><metadata xmlns:rdf="http://www.w3.org/1999/02/22-rdf-syntax-ns#" xmlns:xsi="http://www.w3.org/2001/XMLSchema-instance" xmlns:dc="http://purl.org/dc/elements/1.1/" xmlns:dcterms="http://purl.org/dc/terms/"><rdf:RDF><rdf:Description><dc:title>Pixel Art</dc:title><dc:creator>DiceBear</dc:creator><dc:source xsi:type="dcterms:URI">https://www.figma.com/community/file/1198754108850888330</dc:source><dcterms:license xsi:type="dcterms:URI">https://creativecommons.org/publicdomain/zero/1.0/</dcterms:license><dc:rights>“Pixel Art” (https://www.figma.com/community/file/1198754108850888330) by “DiceBear”, licensed under “CC0 1.0” (https://creativecommons.org/publicdomain/zero/1.0/)</dc:rights></rdf:Description></rdf:RDF></metadata><defs><g id="clothes-variant06-cbf93a5f"><path d="M8 1h3v1h1v2H0V2h1V1h3v1h4z" fill="#ffeead"/><path fill="white" fill-opacity=".2" d="M1 1h1v1H1zM0 2h1v1H0zm1 1h1v1H1zm1-1h1v1H2zm1-1h1v1H3zm0 2h1v1H3zm1-1h1v1H4zm1 1h1v1H5zm1-1h1v1H6zm1 1h1v1H7zm1-1h1v1H8zm1 1h1v1H9zm0-2h1v1H9zm1 1h1v1h-1zm1 1h1v1h-1z"/></g><g id="eyes-variant02-cbf93a5f"><path fill-rule="evenodd" clip-rule="evenodd" d="M7 0H6v2h2V1H7zM2 0H1v2h2V1H2z" fill="white"/><path fill-rule="evenodd" clip-rule="evenodd" d="M6 0v1h1v1H5V0zM1 0v1h1v1H0V0z" fill="#5b7c8b"/><path fill-rule="evenodd" clip-rule="evenodd" d="M6 0v1H5V0zm1 1v1H6V1zM1 0v1H0V0zm1 1v1H1V1z" fill="white" fill-opacity=".5"/></g><g id="mouth-happy06-cbf93a5f"><path d="M0 0v1h1v1h2V1h1V0z" fill="#e35d6a"/></g><g id="hair-long19-cbf93a5f"><path d="M13 2H3v1H2v3h1V4h10v2h1V3h-1zM3 8H2v1H1v2H0v1h1v-1h1v-1h1z" fill="#91cb15"/></g><clipPath id="clip-cbf93a5f"><rect width="16" height="16" rx="0" ry="0"/></clipPath></defs><g clip-path="url(#clip-cbf93a5f)"><path d="M4 2h8v1h1v3h1v2h-1v3h-1v1H9v1h4v1h1v2H2v-2h1v-1h4v-1H4v-1H3V8H2V6h1V3h1z" fill="#eac393"/><path d="M4 2h8v1h1v3h1v2h-1v3h-1v1H4v-1H3V8H2V6h1V3h1z" fill="white" fill-opacity=".1"/><use transform="translate(2 12)" href="#clothes-variant06-cbf93a5f"/><use transform="translate(4 5)" href="#eyes-variant02-cbf93a5f"/><use transform="translate(6 9)" href="#mouth-happy06-cbf93a5f"/><use href="#hair-long19-cbf93a5f"/></g></svg>