<svg xmlns="http://www.w3.org/2000/svg" viewBox="0 0 100 100" fill="none" shape-rendering="auto" aria-hidden="true" width="512" height="512"><!-- Generated by DiceBear (https://www.dicebear.com) --><metadata xmlns:rdf="http://www.w3.org/1999/02/22-rdf-syntax-ns#" xmlns:xsi="http://www.w3.org/2001/XMLSchema-instance" xmlns:dc="http://purl.org/dc/elements/1.1/" xmlns:dcterms="http://purl.org/dc/terms/"><rdf:RDF><rdf:Description><dc:title>Critters</dc:title><dc:creator>DiceBear</dc:creator><dc:source xsi:type="dcterms:URI">https://www.dicebear.com</dc:source><dcterms:license xsi:type="dcterms:URI">https://creativecommons.org/publicdomain/zero/1.0/</dcterms:license><dc:rights>“Critters” (https://www.dicebear.com) by “DiceBear”, licensed under “CC0 1.0” (https://creativecommons.org/publicdomain/zero/1.0/)</dc:rights></rdf:Description></rdf:RDF></metadata><defs><g id="top-earsDroop-70c1938d"><g opacity=".15" transform="translate(-23 -6.5)"><ellipse cx="36" cy="32" rx="5.5" ry="16" transform="rotate(-16 36 32)" fill="#1e293b"/><ellipse cx="64" cy="32" rx="5.5" ry="16" transform="rotate(16 64 32)" fill="#1e293b"/></g><ellipse cx="36" cy="32" rx="5.5" ry="16" transform="rotate(-16 -12.577 119.5)" fill="#6ee7b9"/><ellipse cx="64" cy="32" rx="5.5" ry="16" transform="rotate(16 86.577 -65.5)" fill="#6ee7b9"/></g><clipPath id="dbcrb-round"><path d="M10 106V70c0-26 16-40 40-40s40 14 40 40v36Z"/></clipPath><g id="body-round-70c1938d"><g class="dbcr-t"><use transform="translate(26 8)" href="#top-earsDroop-70c1938d"/></g><path d="M13 109.5v-36c0-26 16-40 40-40s40 14 40 40v36Z" fill="#1e293b" opacity=".15"/><path d="M10 106V70c0-26 16-40 40-40s40 14 40 40v36Z" fill="#fdba74"/><g clip-path="url(#dbcrb-round)"><path d="M10 106V70c0-26 16-40 40-40s40 14 40 40v36Zm3.5 4.5v-36c0-26 16-40 40-40s40 14 40 40v36Z" fill="#ffffff" opacity=".16" fill-rule="evenodd"/><path d="M10 106V70c0-26 16-40 40-40s40 14 40 40v36Zm-3.5-4.5v-36c0-26 16-40 40-40s40 14 40 40v36Z" fill="#1e293b" opacity=".1" fill-rule="evenodd"/></g></g><g id="eyes-mono-70c1938d"><g class="dbcr-eb"><circle cx="23" cy="11" r="11" fill="#ffffff"/><circle cx="23" cy="11" r="4.5" fill="#1e293b"/></g></g><g id="mouth-grin-70c1938d"><path d="M2 3a12 12 0 0 0 24 0Z" fill="#1e293b"/><path d="M8.5 9a5.5 5.5 0 0 0 11 0Z" fill="#fb7185"/></g><g id="animation-none-70c1938d"></g><clipPath id="clip-70c1938d"><rect width="100" height="100" rx="0" ry="0"/></clipPath></defs><g clip-path="url(#clip-70c1938d)"><rect width="100" height="100" fill="#1d4ed8"/><g class="dbcr-c"><use href="#body-round-70c1938d"/><use transform="translate(27 36)" href="#eyes-mono-70c1938d"/><use transform="translate(36 60)" href="#mouth-grin-70c1938d"/></g><use href="#animation-none-70c1938d"/></g></svg>